<?xml version="1.0" encoding="UTF-8"?>
<!DOCTYPE svg PUBLIC "-//W3C//DTD SVG 1.1//EN" "http://www.w3.org/Graphics/SVG/1.1/DTD/svg11.dtd">
<svg xmlns="http://www.w3.org/2000/svg" version="1.1" width="100px" height="100px" style="shape-rendering:geometricPrecision; text-rendering:geometricPrecision; image-rendering:optimizeQuality; fill-rule:evenodd; clip-rule:evenodd" xmlns:xlink="http://www.w3.org/1999/xlink">
<g><path style="opacity:1" fill="#000000" d="M 33.5,-0.5 C 44.5,-0.5 55.5,-0.5 66.5,-0.5C 66.5,5.16667 66.5,10.8333 66.5,16.5C 74.8333,16.5 83.1667,16.5 91.5,16.5C 91.5,42.8333 91.5,69.1667 91.5,95.5C 63.1667,95.5 34.8333,95.5 6.5,95.5C 6.5,69.1667 6.5,42.8333 6.5,16.5C 15.5,16.5 24.5,16.5 33.5,16.5C 33.5,10.8333 33.5,5.16667 33.5,-0.5 Z"/></g>
<g><path style="opacity:1" fill="#00ff10" d="M 59.5,25.5 C 59.5,30.5 59.5,35.5 59.5,40.5C 53.5,40.5 47.5,40.5 41.5,40.5C 41.5,35.5 41.5,30.5 41.5,25.5C 41.5,18.5 41.5,11.5 41.5,4.5C 47.5,4.5 53.5,4.5 59.5,4.5C 59.5,11.5 59.5,18.5 59.5,25.5 Z"/></g>
<g><path style="opacity:1" fill="#fe0021" d="M 41.5,25.5 C 41.5,30.5 41.5,35.5 41.5,40.5C 47.5,40.5 53.5,40.5 59.5,40.5C 59.5,35.5 59.5,30.5 59.5,25.5C 66.8333,25.5 74.1667,25.5 81.5,25.5C 81.5,46.1667 81.5,66.8333 81.5,87.5C 60.1667,87.5 38.8333,87.5 17.5,87.5C 17.5,66.8333 17.5,46.1667 17.5,25.5C 25.5,25.5 33.5,25.5 41.5,25.5 Z"/></g>
</svg>
