<?xml version="1.0" encoding="UTF-8"?>
<!DOCTYPE svg PUBLIC "-//W3C//DTD SVG 1.1//EN" "http://www.w3.org/Graphics/SVG/1.1/DTD/svg11.dtd">
<svg xmlns="http://www.w3.org/2000/svg" version="1.1" width="683px" height="739px" style="shape-rendering:geometricPrecision; text-rendering:geometricPrecision; image-rendering:optimizeQuality; fill-rule:evenodd; clip-rule:evenodd" xmlns:xlink="http://www.w3.org/1999/xlink">
<g><path style="opacity:0.62" fill="#2d161c" d="M 215.5,217.5 C 259.835,217.333 304.168,217.5 348.5,218C 349,218.5 349.5,219 350,219.5C 350.499,224.155 350.666,228.821 350.5,233.5C 361.172,233.815 371.839,234.315 382.5,235C 383,235.5 383.5,236 384,236.5C 384.333,240.833 384.667,245.167 385,249.5C 385.75,250.126 386.584,250.626 387.5,251C 391.5,251.333 395.5,251.667 399.5,252C 400,252.5 400.5,253 401,253.5C 401.333,257.833 401.667,262.167 402,266.5C 405.411,267.293 408.911,267.793 412.5,268C 414.676,268.163 416.509,268.996 418,270.5C 418.499,275.155 418.666,279.821 418.5,284.5C 423.599,284.175 428.599,284.675 433.5,286C 434.154,290.83 434.987,295.663 436,300.5C 441.197,301.665 446.197,302.665 451,303.5C 451.748,308.481 452.248,313.481 452.5,318.5C 457.794,318.479 462.794,318.979 467.5,320C 468.859,325.039 469.526,330.205 469.5,335.5C 474.179,335.334 478.845,335.501 483.5,336C 484.333,336.833 485.167,337.667 486,338.5C 486.499,343.155 486.666,347.821 486.5,352.5C 496.839,352.666 507.172,352.5 517.5,352C 518,351.5 518.5,351 519,350.5C 519.333,346.167 519.667,341.833 520,337.5C 520.75,336.874 521.584,336.374 522.5,336C 538.234,335.047 553.901,335.38 569.5,337C 570.305,341.749 570.805,346.582 571,351.5C 575.742,352.607 580.576,353.441 585.5,354C 586,354.5 586.5,355 587,355.5C 587.667,365.167 587.667,374.833 587,384.5C 586.5,385 586,385.5 585.5,386C 580.536,386.912 575.536,387.412 570.5,387.5C 570.5,392.833 570.5,398.167 570.5,403.5C 575.511,403.334 580.511,403.501 585.5,404C 586,404.5 586.5,405 587,405.5C 587.667,421.5 587.667,437.5 587,453.5C 585.333,454.167 583.667,454.833 582,455.5C 561.617,455.419 541.117,454.919 520.5,454C 519.808,449.199 519.142,444.365 518.5,439.5C 514.001,438.751 509.501,438.084 505,437.5C 503.5,437.667 502.667,438.5 502.5,440C 503.205,441.422 503.539,442.755 503.5,444C 503.115,447.59 502.115,450.923 500.5,454C 483.979,454.202 467.479,454.702 451,455.5C 356.483,455.241 261.316,454.741 165.5,454C 163.473,452.604 163.14,450.938 164.5,449C 163.712,445.924 163.212,442.758 163,439.5C 158.17,438.846 153.337,438.013 148.5,437C 147.874,436.25 147.374,435.416 147,434.5C 146.468,430.091 146.468,425.757 147,421.5C 141.871,421.967 136.704,421.467 131.5,420C 130.726,417.595 130.226,415.095 130,412.5C 129.333,387.5 129.333,362.5 130,337.5C 131.067,336.809 132.234,336.309 133.5,336C 137.807,335.701 141.974,335.534 146,335.5C 146.286,324.48 146.786,313.48 147.5,302.5C 152.047,301.324 156.547,301.324 161,302.5C 162,301.833 163,301.167 164,300.5C 163.052,290.184 163.385,279.851 165,269.5C 169.648,267.892 174.481,267.058 179.5,267C 180.88,265.676 181.214,264.343 180.5,263C 181.293,259.589 181.793,256.089 182,252.5C 187.051,251.79 192.051,250.79 197,249.5C 197.195,244.582 197.695,239.749 198.5,235C 203.829,234.882 208.995,234.049 214,232.5C 215.11,227.429 215.61,222.429 215.5,217.5 Z"/></g>
<g><path style="opacity:1" fill="#31212b" d="M 468.5,336.5 C 473.418,337.281 478.418,337.781 483.5,338C 484.77,342.555 485.103,347.055 484.5,351.5C 479.167,351.5 473.833,351.5 468.5,351.5C 468.5,346.5 468.5,341.5 468.5,336.5 Z"/></g>
<g><path style="opacity:1" fill="#9a402d" d="M 451.5,335.5 C 456.833,335.5 462.167,335.5 467.5,335.5C 468.167,335.5 468.5,335.833 468.5,336.5C 468.5,341.5 468.5,346.5 468.5,351.5C 468.5,351.833 468.5,352.167 468.5,352.5C 463.338,352.481 458.005,352.314 452.5,352C 451.527,346.593 451.193,341.093 451.5,335.5 Z"/></g>
<g><path style="opacity:1" fill="#bd374a" d="M 248.5,337.5 C 249.833,347.833 249.833,358.167 248.5,368.5C 243.167,368.5 237.833,368.5 232.5,368.5C 232.5,357.833 232.5,347.167 232.5,336.5C 237.927,336.218 243.26,336.551 248.5,337.5 Z"/></g>
<g><path style="opacity:1" fill="#c75055" d="M 231.5,335.5 C 236.833,335.5 242.167,335.5 247.5,335.5C 248.5,335.5 249.5,335.5 250.5,335.5C 249.833,336.167 249.167,336.833 248.5,337.5C 243.26,336.551 237.927,336.218 232.5,336.5C 232.5,347.167 232.5,357.833 232.5,368.5C 237.833,368.5 243.167,368.5 248.5,368.5C 248.5,369.167 248.833,369.5 249.5,369.5C 249.821,374.695 249.487,379.695 248.5,384.5C 248.803,379.57 248.469,374.737 247.5,370C 242.177,369.501 236.844,369.334 231.5,369.5C 231.5,358.167 231.5,346.833 231.5,335.5 Z"/></g>
<g><path style="opacity:1" fill="#bd374a" d="M 180.5,336.5 C 180.827,347.078 180.994,357.745 181,368.5C 186.407,369.473 191.907,369.807 197.5,369.5C 197.5,375.167 197.5,380.833 197.5,386.5C 191.907,386.193 186.407,386.527 181,387.5C 180.501,393.157 180.334,398.824 180.5,404.5C 180.5,407.167 180.5,409.833 180.5,412.5C 179.532,414.607 179.198,416.941 179.5,419.5C 174.5,419.5 169.5,419.5 164.5,419.5C 164.5,391.833 164.5,364.167 164.5,336.5C 169.833,336.5 175.167,336.5 180.5,336.5 Z"/></g>
<g><path style="opacity:1" fill="#db9a72" d="M 148.5,335.5 C 153.5,335.5 158.5,335.5 163.5,335.5C 163.5,363.833 163.5,392.167 163.5,420.5C 158.5,420.5 153.5,420.5 148.5,420.5C 147.833,420.167 147.167,419.833 146.5,419.5C 146.5,392.167 146.5,364.833 146.5,337.5C 146.833,336.5 147.5,335.833 148.5,335.5 Z"/></g>
<g><path style="opacity:1" fill="#9d402d" d="M 316.5,335.5 C 321.833,335.5 327.167,335.5 332.5,335.5C 332.5,341.167 332.5,346.833 332.5,352.5C 338,352.731 343.666,352.731 349.5,352.5C 349.5,358.167 349.5,363.833 349.5,369.5C 343.833,369.5 338.167,369.5 332.5,369.5C 332.5,375.167 332.5,380.833 332.5,386.5C 327.167,386.5 321.833,386.5 316.5,386.5C 316.5,369.5 316.5,352.5 316.5,335.5 Z"/></g>
<g><path style="opacity:1" fill="#de4c4c" d="M 264.5,334.5 C 264.833,334.5 265.167,334.5 265.5,334.5C 271.094,335.093 276.761,335.926 282.5,337C 281.763,347.228 281.763,357.228 282.5,367C 282.043,367.414 281.709,367.914 281.5,368.5C 279,368.833 276.5,369.167 274,369.5C 265.976,369.128 257.81,369.128 249.5,369.5C 248.833,369.5 248.5,369.167 248.5,368.5C 249.833,358.167 249.833,347.833 248.5,337.5C 249.167,336.833 249.833,336.167 250.5,335.5C 255.363,335.819 260.03,335.486 264.5,334.5 Z"/></g>
<g><path style="opacity:1" fill="#f3cc9e" d="M 230.5,369.5 C 225.167,369.5 219.833,369.5 214.5,369.5C 210.087,369.363 205.587,369.696 201,370.5C 199.887,369.695 198.721,369.028 197.5,368.5C 197.5,357.833 197.5,347.167 197.5,336.5C 208.419,335.523 219.419,335.19 230.5,335.5C 230.5,346.833 230.5,358.167 230.5,369.5 Z"/></g>
<g><path style="opacity:1" fill="#de4d4d" d="M 180.5,335.5 C 186.167,335.5 191.833,335.5 197.5,335.5C 197.5,335.833 197.5,336.167 197.5,336.5C 197.5,347.167 197.5,357.833 197.5,368.5C 197.5,368.833 197.5,369.167 197.5,369.5C 191.907,369.807 186.407,369.473 181,368.5C 180.994,357.745 180.827,347.078 180.5,336.5C 180.5,336.167 180.5,335.833 180.5,335.5 Z"/></g>
<g><path style="opacity:1" fill="#c74f55" d="M 163.5,335.5 C 169.167,335.5 174.833,335.5 180.5,335.5C 180.5,335.833 180.5,336.167 180.5,336.5C 175.167,336.5 169.833,336.5 164.5,336.5C 164.5,364.167 164.5,391.833 164.5,419.5C 169.5,419.5 174.5,419.5 179.5,419.5C 179.198,416.941 179.532,414.607 180.5,412.5C 180.5,415.167 180.5,417.833 180.5,420.5C 175.167,420.5 169.833,420.5 164.5,420.5C 164.167,420.5 163.833,420.5 163.5,420.5C 163.5,392.167 163.5,363.833 163.5,335.5 Z"/></g>
<g><path style="opacity:1" fill="#33212a" d="M 467.5,335.5 C 462.167,335.5 456.833,335.5 451.5,335.5C 451.5,330.833 451.5,326.167 451.5,321.5C 452.222,321.082 452.722,320.416 453,319.5C 457.261,319.922 461.761,320.589 466.5,321.5C 467.2,325.896 467.533,330.563 467.5,335.5 Z"/></g>
<g><path style="opacity:1" fill="#f3cd9e" d="M 299.5,318.5 C 304.5,318.5 309.5,318.5 314.5,318.5C 315.489,341.092 315.822,363.758 315.5,386.5C 310.167,386.5 304.833,386.5 299.5,386.5C 299.5,363.833 299.5,341.167 299.5,318.5 Z"/></g>
<g><path style="opacity:1" fill="#bd384a" d="M 265.5,318.5 C 271.167,318.5 276.833,318.5 282.5,318.5C 287.833,318.5 293.167,318.5 298.5,318.5C 298.169,341.339 298.503,364.006 299.5,386.5C 299.5,390.833 299.5,395.167 299.5,399.5C 298.596,400.209 298.263,401.209 298.5,402.5C 292.833,402.5 287.167,402.5 281.5,402.5C 282.317,397.24 282.317,392.24 281.5,387.5C 276.208,386.505 270.875,386.172 265.5,386.5C 259.833,386.5 254.167,386.5 248.5,386.5C 248.5,385.833 248.5,385.167 248.5,384.5C 249.487,379.695 249.821,374.695 249.5,369.5C 257.81,369.128 265.976,369.128 274,369.5C 276.5,369.167 279,368.833 281.5,368.5C 281.709,367.914 282.043,367.414 282.5,367C 281.763,357.228 281.763,347.228 282.5,337C 276.761,335.926 271.094,335.093 265.5,334.5C 265.5,329.167 265.5,323.833 265.5,318.5 Z"/></g>
<g><path style="opacity:1" fill="#f2c99b" d="M 231.5,318.5 C 236.833,318.5 242.167,318.5 247.5,318.5C 248.833,324.167 248.833,329.833 247.5,335.5C 242.167,335.5 236.833,335.5 231.5,335.5C 230.167,329.833 230.167,324.167 231.5,318.5 Z"/></g>
<g><path style="opacity:1" fill="#a54a2f" d="M 424.5,301.5 C 427.5,301.5 430.5,301.5 433.5,301.5C 434.167,301.5 434.5,301.833 434.5,302.5C 433.887,308.271 434.554,313.604 436.5,318.5C 441.167,318.5 445.833,318.5 450.5,318.5C 451.404,319.209 451.737,320.209 451.5,321.5C 451.5,326.167 451.5,330.833 451.5,335.5C 450.673,330.349 450.173,325.016 450,319.5C 444.863,319.523 439.697,319.523 434.5,319.5C 433.505,313.872 433.171,308.206 433.5,302.5C 430.287,302.81 427.287,302.477 424.5,301.5 Z"/></g>
<g><path style="opacity:1" fill="#df9c73" d="M 247.5,318.5 C 252.5,318.5 257.5,318.5 262.5,318.5C 264.37,323.532 265.037,328.865 264.5,334.5C 260.03,335.486 255.363,335.819 250.5,335.5C 249.5,335.5 248.5,335.5 247.5,335.5C 248.833,329.833 248.833,324.167 247.5,318.5 Z"/></g>
<g><path style="opacity:1" fill="#df9c73" d="M 197.5,318.5 C 203.167,318.5 208.833,318.5 214.5,318.5C 220.167,318.5 225.833,318.5 231.5,318.5C 230.167,324.167 230.167,329.833 231.5,335.5C 231.5,346.833 231.5,358.167 231.5,369.5C 231.167,369.5 230.833,369.5 230.5,369.5C 230.5,358.167 230.5,346.833 230.5,335.5C 219.419,335.19 208.419,335.523 197.5,336.5C 197.5,336.167 197.5,335.833 197.5,335.5C 197.5,329.833 197.5,324.167 197.5,318.5 Z"/></g>
<g><path style="opacity:1" fill="#32212b" d="M 163.5,303.5 C 163.5,314.167 163.5,324.833 163.5,335.5C 158.5,335.5 153.5,335.5 148.5,335.5C 148.334,325.161 148.5,314.828 149,304.5C 153.737,303.531 158.57,303.197 163.5,303.5 Z"/></g>
<g><path style="opacity:1" fill="#32212a" d="M 435.5,302.5 C 440.003,303.139 444.503,303.806 449,304.5C 449.436,308.959 449.936,313.625 450.5,318.5C 445.833,318.5 441.167,318.5 436.5,318.5C 435.551,313.26 435.218,307.927 435.5,302.5 Z"/></g>
<g><path style="opacity:1" fill="#542c28" d="M 434.5,302.5 C 434.833,302.5 435.167,302.5 435.5,302.5C 435.218,307.927 435.551,313.26 436.5,318.5C 434.554,313.604 433.887,308.271 434.5,302.5 Z"/></g>
<g><path style="opacity:1" fill="#df9c73" d="M 281.5,302.5 C 281.37,308.074 281.703,313.407 282.5,318.5C 276.833,318.5 271.167,318.5 265.5,318.5C 265.5,313.167 265.5,307.833 265.5,302.5C 270.833,302.5 276.167,302.5 281.5,302.5 Z"/></g>
<g><path style="opacity:1" fill="#be394b" d="M 180.5,301.5 C 186.167,301.5 191.833,301.5 197.5,301.5C 197.5,307.167 197.5,312.833 197.5,318.5C 197.5,324.167 197.5,329.833 197.5,335.5C 191.833,335.5 186.167,335.5 180.5,335.5C 180.5,324.167 180.5,312.833 180.5,301.5 Z"/></g>
<g><path style="opacity:1" fill="#dc9a72" d="M 165.5,301.5 C 170.5,301.5 175.5,301.5 180.5,301.5C 180.5,312.833 180.5,324.167 180.5,335.5C 174.833,335.5 169.167,335.5 163.5,335.5C 163.5,324.833 163.5,314.167 163.5,303.5C 163.833,302.5 164.5,301.833 165.5,301.5 Z"/></g>
<g><path style="opacity:1" fill="#9e412e" d="M 299.5,301.5 C 304.762,301.195 309.928,301.529 315,302.5C 315.781,307.917 315.615,313.25 314.5,318.5C 309.5,318.5 304.5,318.5 299.5,318.5C 299.5,312.833 299.5,307.167 299.5,301.5 Z"/></g>
<g><path style="opacity:1" fill="#d77d68" d="M 281.5,268.5 C 281.833,268.5 282.167,268.5 282.5,268.5C 282.828,280.012 282.495,291.346 281.5,302.5C 276.167,302.5 270.833,302.5 265.5,302.5C 265.5,307.833 265.5,313.167 265.5,318.5C 265.5,323.833 265.5,329.167 265.5,334.5C 265.167,334.5 264.833,334.5 264.5,334.5C 265.037,328.865 264.37,323.532 262.5,318.5C 264.146,313.073 265.146,307.406 265.5,301.5C 270.833,301.5 276.167,301.5 281.5,301.5C 281.5,290.5 281.5,279.5 281.5,268.5 Z"/></g>
<g><path style="opacity:1" fill="#de4d4c" d="M 197.5,301.5 C 203.167,301.5 208.833,301.5 214.5,301.5C 213.449,307.309 213.449,312.976 214.5,318.5C 208.833,318.5 203.167,318.5 197.5,318.5C 197.5,312.833 197.5,307.167 197.5,301.5 Z"/></g>
<g><path style="opacity:1" fill="#30212a" d="M 433.5,301.5 C 430.5,301.5 427.5,301.5 424.5,301.5C 424.167,301.5 423.833,301.5 423.5,301.5C 421.833,301.5 420.167,301.5 418.5,301.5C 418.5,296.5 418.5,291.5 418.5,286.5C 423.167,286.5 427.833,286.5 432.5,286.5C 432.503,291.527 432.836,296.527 433.5,301.5 Z"/></g>
<g><path style="opacity:1" fill="#a2462f" d="M 383.5,267.5 C 383.833,267.5 384.167,267.5 384.5,267.5C 389.833,267.5 395.167,267.5 400.5,267.5C 400.178,273.358 400.511,279.025 401.5,284.5C 406.5,284.5 411.5,284.5 416.5,284.5C 417.167,290.167 417.833,295.833 418.5,301.5C 420.167,301.5 421.833,301.5 423.5,301.5C 421.393,302.468 419.059,302.802 416.5,302.5C 416.5,296.833 416.5,291.167 416.5,285.5C 410.833,285.5 405.167,285.5 399.5,285.5C 399.5,279.833 399.5,274.167 399.5,268.5C 393.974,268.821 388.64,268.488 383.5,267.5 Z"/></g>
<g><path style="opacity:1" fill="#de4c4c" d="M 265.5,301.5 C 265.146,307.406 264.146,313.073 262.5,318.5C 257.5,318.5 252.5,318.5 247.5,318.5C 242.167,318.5 236.833,318.5 231.5,318.5C 231.023,307.004 231.523,295.671 233,284.5C 243,285.833 253,285.833 263,284.5C 263.833,285.333 264.667,286.167 265.5,287C 264.402,291.784 264.402,296.617 265.5,301.5 Z"/></g>
<g><path style="opacity:1" fill="#30212a" d="M 416.5,284.5 C 411.5,284.5 406.5,284.5 401.5,284.5C 401.5,279.5 401.5,274.5 401.5,269.5C 406.233,269.223 410.9,269.557 415.5,270.5C 416.493,275.12 416.827,279.786 416.5,284.5 Z"/></g>
<g><path style="opacity:1" fill="#32212a" d="M 180.5,269.5 C 180.5,280.167 180.5,290.833 180.5,301.5C 175.5,301.5 170.5,301.5 165.5,301.5C 165.334,291.161 165.5,280.828 166,270.5C 170.737,269.531 175.57,269.197 180.5,269.5 Z"/></g>
<g><path style="opacity:1" fill="#db9470" d="M 278.5,250.5 C 279.833,250.5 281.167,250.5 282.5,250.5C 282.5,256.167 282.5,261.833 282.5,267.5C 288.167,267.5 293.833,267.5 299.5,267.5C 299.5,278.833 299.5,290.167 299.5,301.5C 299.5,307.167 299.5,312.833 299.5,318.5C 299.5,341.167 299.5,363.833 299.5,386.5C 298.503,364.006 298.169,341.339 298.5,318.5C 298.5,301.833 298.5,285.167 298.5,268.5C 293.167,268.5 287.833,268.5 282.5,268.5C 282.167,268.5 281.833,268.5 281.5,268.5C 281.5,268.167 281.5,267.833 281.5,267.5C 281.5,262.167 281.5,256.833 281.5,251.5C 280.209,251.737 279.209,251.404 278.5,250.5 Z"/></g>
<g><path style="opacity:1" fill="#f3cd9e" d="M 282.5,268.5 C 287.833,268.5 293.167,268.5 298.5,268.5C 298.5,285.167 298.5,301.833 298.5,318.5C 293.167,318.5 287.833,318.5 282.5,318.5C 281.703,313.407 281.37,308.074 281.5,302.5C 282.495,291.346 282.828,280.012 282.5,268.5 Z"/></g>
<g><path style="opacity:1" fill="#dd9b72" d="M 181.5,268.5 C 186.833,268.5 192.167,268.5 197.5,268.5C 197.5,273.833 197.5,279.167 197.5,284.5C 202.844,284.334 208.177,284.501 213.5,285C 214.473,290.407 214.807,295.907 214.5,301.5C 208.833,301.5 203.167,301.5 197.5,301.5C 191.833,301.5 186.167,301.5 180.5,301.5C 180.5,290.833 180.5,280.167 180.5,269.5C 180.5,268.833 180.833,268.5 181.5,268.5 Z"/></g>
<g><path style="opacity:1" fill="#31212b" d="M 384.5,252.5 C 389.463,253.254 394.463,253.587 399.5,253.5C 399.283,258.23 399.617,262.897 400.5,267.5C 395.167,267.5 389.833,267.5 384.5,267.5C 384.5,262.5 384.5,257.5 384.5,252.5 Z"/></g>
<g><path style="opacity:1" fill="#33232c" d="M 197.5,252.5 C 197.5,257.5 197.5,262.5 197.5,267.5C 192.5,267.5 187.5,267.5 182.5,267.5C 182.5,262.833 182.5,258.167 182.5,253.5C 187.507,253.249 192.507,252.916 197.5,252.5 Z"/></g>
<g><path style="opacity:1" fill="#5b2f29" d="M 382.5,249.5 C 383.906,249.973 384.573,250.973 384.5,252.5C 384.5,257.5 384.5,262.5 384.5,267.5C 384.167,267.5 383.833,267.5 383.5,267.5C 383.5,262.167 383.5,256.833 383.5,251.5C 378.637,251.819 373.97,251.486 369.5,250.5C 374.032,250.818 378.366,250.485 382.5,249.5 Z"/></g>
<g><path style="opacity:1" fill="#9b402d" d="M 349.5,250.5 C 349.833,250.5 350.167,250.5 350.5,250.5C 356.833,250.5 363.167,250.5 369.5,250.5C 373.97,251.486 378.637,251.819 383.5,251.5C 383.5,256.833 383.5,262.167 383.5,267.5C 378.156,267.666 372.823,267.499 367.5,267C 366.656,261.923 366.323,256.756 366.5,251.5C 360.642,251.822 354.975,251.489 349.5,250.5 Z"/></g>
<g><path style="opacity:1" fill="#c66432" d="M 282.5,250.5 C 304.833,250.5 327.167,250.5 349.5,250.5C 354.975,251.489 360.642,251.822 366.5,251.5C 366.323,256.756 366.656,261.923 367.5,267C 372.823,267.499 378.156,267.666 383.5,267.5C 388.64,268.488 393.974,268.821 399.5,268.5C 399.5,274.167 399.5,279.833 399.5,285.5C 405.167,285.5 410.833,285.5 416.5,285.5C 416.5,291.167 416.5,296.833 416.5,302.5C 419.059,302.802 421.393,302.468 423.5,301.5C 423.833,301.5 424.167,301.5 424.5,301.5C 427.287,302.477 430.287,302.81 433.5,302.5C 433.171,308.206 433.505,313.872 434.5,319.5C 439.697,319.523 444.863,319.523 450,319.5C 450.173,325.016 450.673,330.349 451.5,335.5C 451.193,341.093 451.527,346.593 452.5,352C 458.005,352.314 463.338,352.481 468.5,352.5C 468.5,363.833 468.5,375.167 468.5,386.5C 462.833,386.5 457.167,386.5 451.5,386.5C 450.512,391.64 450.179,396.974 450.5,402.5C 428.167,402.5 405.833,402.5 383.5,402.5C 383.666,397.489 383.499,392.489 383,387.5C 377.924,386.634 372.924,386.301 368,386.5C 367.5,386.833 367,387.167 366.5,387.5C 367.78,392.523 367.78,397.856 366.5,403.5C 361.167,403.5 355.833,403.5 350.5,403.5C 350.167,403.5 349.833,403.5 349.5,403.5C 349.5,397.833 349.5,392.167 349.5,386.5C 343.833,386.5 338.167,386.5 332.5,386.5C 332.5,380.833 332.5,375.167 332.5,369.5C 338.167,369.5 343.833,369.5 349.5,369.5C 349.5,363.833 349.5,358.167 349.5,352.5C 343.666,352.731 338,352.731 332.5,352.5C 332.5,346.833 332.5,341.167 332.5,335.5C 327.167,335.5 321.833,335.5 316.5,335.5C 317.117,329.402 316.45,323.735 314.5,318.5C 315.615,313.25 315.781,307.917 315,302.5C 309.928,301.529 304.762,301.195 299.5,301.5C 299.5,290.167 299.5,278.833 299.5,267.5C 293.833,267.5 288.167,267.5 282.5,267.5C 282.5,261.833 282.5,256.167 282.5,250.5 Z"/></g>
<g><path style="opacity:1" fill="#f1ca9c" d="M 269.5,250.5 C 272.5,250.5 275.5,250.5 278.5,250.5C 279.209,251.404 280.209,251.737 281.5,251.5C 281.5,256.833 281.5,262.167 281.5,267.5C 276.167,267.5 270.833,267.5 265.5,267.5C 265.5,262.167 265.5,256.833 265.5,251.5C 267.099,251.768 268.432,251.434 269.5,250.5 Z"/></g>
<g><path style="opacity:1" fill="#bd384a" d="M 214.5,251.5 C 231.5,251.5 248.5,251.5 265.5,251.5C 265.5,256.833 265.5,262.167 265.5,267.5C 270.833,267.5 276.167,267.5 281.5,267.5C 281.5,267.833 281.5,268.167 281.5,268.5C 281.5,279.5 281.5,290.5 281.5,301.5C 276.167,301.5 270.833,301.5 265.5,301.5C 264.402,296.617 264.402,291.784 265.5,287C 264.667,286.167 263.833,285.333 263,284.5C 253,285.833 243,285.833 233,284.5C 231.523,295.671 231.023,307.004 231.5,318.5C 225.833,318.5 220.167,318.5 214.5,318.5C 213.449,312.976 213.449,307.309 214.5,301.5C 214.807,295.907 214.473,290.407 213.5,285C 208.177,284.501 202.844,284.334 197.5,284.5C 197.5,279.167 197.5,273.833 197.5,268.5C 198.167,268.5 198.5,268.167 198.5,267.5C 203.833,267.5 209.167,267.5 214.5,267.5C 214.5,262.167 214.5,256.833 214.5,251.5 Z"/></g>
<g><path style="opacity:1" fill="#f2cb9c" d="M 214.5,251.5 C 214.5,256.833 214.5,262.167 214.5,267.5C 209.167,267.5 203.833,267.5 198.5,267.5C 198.5,262.167 198.5,256.833 198.5,251.5C 203.833,251.5 209.167,251.5 214.5,251.5 Z"/></g>
<g><path style="opacity:1" fill="#ca9676" d="M 215.5,233.5 C 232.167,233.5 248.833,233.5 265.5,233.5C 265.5,239.167 265.5,244.833 265.5,250.5C 266.833,250.5 268.167,250.5 269.5,250.5C 268.432,251.434 267.099,251.768 265.5,251.5C 248.5,251.5 231.5,251.5 214.5,251.5C 209.167,251.5 203.833,251.5 198.5,251.5C 198.5,256.833 198.5,262.167 198.5,267.5C 198.5,268.167 198.167,268.5 197.5,268.5C 192.167,268.5 186.833,268.5 181.5,268.5C 181.5,267.833 181.833,267.5 182.5,267.5C 187.5,267.5 192.5,267.5 197.5,267.5C 197.5,262.5 197.5,257.5 197.5,252.5C 197.5,251.167 198.167,250.5 199.5,250.5C 204.5,250.5 209.5,250.5 214.5,250.5C 214.5,245.167 214.5,239.833 214.5,234.5C 214.5,233.833 214.833,233.5 215.5,233.5 Z"/></g>
<g><path style="opacity:1" fill="#31212a" d="M 382.5,249.5 C 378.366,250.485 374.032,250.818 369.5,250.5C 363.167,250.5 356.833,250.5 350.5,250.5C 350.5,245.5 350.5,240.5 350.5,235.5C 361.167,235.833 371.833,236.167 382.5,236.5C 382.5,240.833 382.5,245.167 382.5,249.5 Z"/></g>
<g><path style="opacity:1" fill="#34232c" d="M 214.5,234.5 C 214.5,239.833 214.5,245.167 214.5,250.5C 209.5,250.5 204.5,250.5 199.5,250.5C 199.5,245.833 199.5,241.167 199.5,236.5C 204.657,236.706 209.657,236.039 214.5,234.5 Z"/></g>
<g><path style="opacity:1" fill="#9a3f2d" d="M 265.5,233.5 C 293.64,233.959 321.64,233.959 349.5,233.5C 349.5,239.167 349.5,244.833 349.5,250.5C 327.167,250.5 304.833,250.5 282.5,250.5C 281.167,250.5 279.833,250.5 278.5,250.5C 275.5,250.5 272.5,250.5 269.5,250.5C 268.167,250.5 266.833,250.5 265.5,250.5C 265.5,244.833 265.5,239.167 265.5,233.5 Z"/></g>
<g><path style="opacity:1" fill="#f3ce9e" d="M 215.5,234.5 C 231.833,234.5 248.167,234.5 264.5,234.5C 264.5,239.5 264.5,244.5 264.5,249.5C 248.167,249.5 231.833,249.5 215.5,249.5C 215.5,244.5 215.5,239.5 215.5,234.5 Z"/></g>
<g><path style="opacity:1" fill="#31212a" d="M 349.5,233.5 C 321.64,233.959 293.64,233.959 265.5,233.5C 248.833,233.5 232.167,233.5 215.5,233.5C 216.277,228.916 216.777,224.25 217,219.5C 217.561,218.978 218.228,218.645 219,218.5C 261.902,219.265 304.068,219.265 345.5,218.5C 347.167,218.833 348.167,219.833 348.5,221.5C 349.362,225.453 349.695,229.453 349.5,233.5 Z"/></g>
<g><path style="opacity:1" fill="#30212a" d="M 146.5,337.5 C 146.5,364.833 146.5,392.167 146.5,419.5C 141.57,419.803 136.737,419.469 132,418.5C 131.5,391.502 131.333,364.502 131.5,337.5C 136.5,337.5 141.5,337.5 146.5,337.5 Z"/></g>
<g><path style="opacity:1" fill="#33232c" d="M 569.5,352.5 C 553.167,352.5 536.833,352.5 520.5,352.5C 520.916,347.507 521.249,342.507 521.5,337.5C 536.837,337.333 552.17,337.5 567.5,338C 569.183,342.652 569.85,347.485 569.5,352.5 Z"/></g>
<g><path style="opacity:1" fill="#c48567" d="M 314.5,318.5 C 316.45,323.735 317.117,329.402 316.5,335.5C 316.5,352.5 316.5,369.5 316.5,386.5C 316.5,392.167 316.5,397.833 316.5,403.5C 310.833,403.5 305.167,403.5 299.5,403.5C 299.5,403.167 299.5,402.833 299.5,402.5C 304.833,402.5 310.167,402.5 315.5,402.5C 315.5,397.167 315.5,391.833 315.5,386.5C 315.822,363.758 315.489,341.092 314.5,318.5 Z"/></g>
<g><path style="opacity:1" fill="#9d412d" d="M 468.5,352.5 C 474.358,352.178 480.025,352.511 485.5,353.5C 485.5,358.833 485.5,364.167 485.5,369.5C 485.612,381.17 485.279,392.503 484.5,403.5C 473.5,403.5 462.5,403.5 451.5,403.5C 451.5,397.833 451.5,392.167 451.5,386.5C 457.167,386.5 462.833,386.5 468.5,386.5C 468.5,375.167 468.5,363.833 468.5,352.5 Z"/></g>
<g><path style="opacity:1" fill="#33232c" d="M 485.5,353.5 C 496.5,354.833 507.5,354.833 518.5,353.5C 518.5,358.833 518.5,364.167 518.5,369.5C 507.5,369.5 496.5,369.5 485.5,369.5C 485.5,364.167 485.5,358.833 485.5,353.5 Z"/></g>
<g><path style="opacity:1" fill="#de9d73" d="M 518.5,353.5 C 518.833,353.5 519.167,353.5 519.5,353.5C 535.833,353.5 552.167,353.5 568.5,353.5C 568.5,364.167 568.5,374.833 568.5,385.5C 563.305,385.179 558.305,385.513 553.5,386.5C 553.167,386.5 552.833,386.5 552.5,386.5C 553.443,380.875 553.776,375.375 553.5,370C 552.234,369.691 551.067,369.191 550,368.5C 539.663,369.42 529.163,369.753 518.5,369.5C 518.5,364.167 518.5,358.833 518.5,353.5 Z"/></g>
<g><path style="opacity:1" fill="#c68266" d="M 519.5,353.5 C 519.5,352.833 519.833,352.5 520.5,352.5C 536.833,352.5 553.167,352.5 569.5,352.5C 569.5,352.833 569.5,353.167 569.5,353.5C 569.5,364.5 569.5,375.5 569.5,386.5C 564.167,386.5 558.833,386.5 553.5,386.5C 558.305,385.513 563.305,385.179 568.5,385.5C 568.5,374.833 568.5,364.167 568.5,353.5C 552.167,353.5 535.833,353.5 519.5,353.5 Z"/></g>
<g><path style="opacity:1" fill="#33232c" d="M 569.5,353.5 C 574.47,354.166 579.47,354.833 584.5,355.5C 585.833,365.167 585.833,374.833 584.5,384.5C 579.669,384.956 574.669,385.623 569.5,386.5C 569.5,375.5 569.5,364.5 569.5,353.5 Z"/></g>
<g><path style="opacity:1" fill="#de9a72" d="M 197.5,368.5 C 198.721,369.028 199.887,369.695 201,370.5C 205.587,369.696 210.087,369.363 214.5,369.5C 214.5,369.833 214.5,370.167 214.5,370.5C 214.5,375.5 214.5,380.5 214.5,385.5C 208.925,386.452 203.259,386.786 197.5,386.5C 197.5,380.833 197.5,375.167 197.5,369.5C 197.5,369.167 197.5,368.833 197.5,368.5 Z"/></g>
<g><path style="opacity:1" fill="#db695f" d="M 214.5,370.5 C 214.5,370.167 214.5,369.833 214.5,369.5C 219.833,369.5 225.167,369.5 230.5,369.5C 230.833,369.5 231.167,369.5 231.5,369.5C 231.5,375.167 231.5,380.833 231.5,386.5C 230.512,381.36 230.179,376.026 230.5,370.5C 225.167,370.5 219.833,370.5 214.5,370.5 Z"/></g>
<g><path style="opacity:1" fill="#9d412d" d="M 350.5,369.5 C 355.639,369.695 360.972,369.695 366.5,369.5C 366.666,374.844 366.499,380.177 366,385.5C 360.886,386.804 355.719,386.804 350.5,385.5C 350.291,384.914 349.957,384.414 349.5,384C 349.366,379.004 349.699,374.171 350.5,369.5 Z"/></g>
<g><path style="opacity:1" fill="#f3cc9e" d="M 552.5,386.5 C 552.5,392.167 552.5,397.833 552.5,403.5C 557.833,403.5 563.167,403.5 568.5,403.5C 569.167,403.5 569.5,403.833 569.5,404.5C 569.5,415.167 569.5,425.833 569.5,436.5C 558.167,436.5 546.833,436.5 535.5,436.5C 535.5,431.167 535.5,425.833 535.5,420.5C 529.833,420.5 524.167,420.5 518.5,420.5C 513.167,420.5 507.833,420.5 502.5,420.5C 501.653,404.07 501.32,387.404 501.5,370.5C 507.358,370.822 513.025,370.489 518.5,369.5C 529.163,369.753 539.663,369.42 550,368.5C 551.067,369.191 552.234,369.691 553.5,370C 553.776,375.375 553.443,380.875 552.5,386.5 Z"/></g>
<g><path style="opacity:1" fill="#de4c4c" d="M 214.5,370.5 C 219.833,370.5 225.167,370.5 230.5,370.5C 230.179,376.026 230.512,381.36 231.5,386.5C 237.167,386.5 242.833,386.5 248.5,386.5C 248.5,392.167 248.5,397.833 248.5,403.5C 237.255,403.508 226.255,403.341 215.5,403C 214.525,397.259 214.192,391.425 214.5,385.5C 214.5,380.5 214.5,375.5 214.5,370.5 Z"/></g>
<g><path style="opacity:1" fill="#de9972" d="M 231.5,369.5 C 236.844,369.334 242.177,369.501 247.5,370C 248.469,374.737 248.803,379.57 248.5,384.5C 248.5,385.167 248.5,385.833 248.5,386.5C 242.833,386.5 237.167,386.5 231.5,386.5C 231.5,380.833 231.5,375.167 231.5,369.5 Z"/></g>
<g><path style="opacity:1" fill="#de9d73" d="M 485.5,369.5 C 496.5,369.5 507.5,369.5 518.5,369.5C 513.025,370.489 507.358,370.822 501.5,370.5C 501.32,387.404 501.653,404.07 502.5,420.5C 501.512,425.64 501.179,430.974 501.5,436.5C 496.167,436.5 490.833,436.5 485.5,436.5C 485.5,431.167 485.5,425.833 485.5,420.5C 484.745,414.727 484.412,409.06 484.5,403.5C 485.279,392.503 485.612,381.17 485.5,369.5 Z"/></g>
<g><path style="opacity:1" fill="#be3a4b" d="M 214.5,385.5 C 214.192,391.425 214.525,397.259 215.5,403C 226.255,403.341 237.255,403.508 248.5,403.5C 248.5,408.833 248.5,414.167 248.5,419.5C 253.833,419.5 259.167,419.5 264.5,419.5C 242.671,420.663 220.671,420.83 198.5,420C 197.527,414.593 197.193,409.093 197.5,403.5C 197.5,397.833 197.5,392.167 197.5,386.5C 203.259,386.786 208.925,386.452 214.5,385.5 Z"/></g>
<g><path style="opacity:1" fill="#e8b389" d="M 248.5,386.5 C 254.167,386.5 259.833,386.5 265.5,386.5C 265.5,391.833 265.5,397.167 265.5,402.5C 265.5,402.833 265.5,403.167 265.5,403.5C 265.5,403.833 265.5,404.167 265.5,404.5C 259.925,403.548 254.259,403.214 248.5,403.5C 248.5,397.833 248.5,392.167 248.5,386.5 Z"/></g>
<g><path style="opacity:1" fill="#de4c4b" d="M 265.5,386.5 C 270.875,386.172 276.208,386.505 281.5,387.5C 282.317,392.24 282.317,397.24 281.5,402.5C 276.167,402.5 270.833,402.5 265.5,402.5C 265.5,397.167 265.5,391.833 265.5,386.5 Z"/></g>
<g><path style="opacity:1" fill="#df9d73" d="M 299.5,386.5 C 304.833,386.5 310.167,386.5 315.5,386.5C 315.5,391.833 315.5,397.167 315.5,402.5C 310.167,402.5 304.833,402.5 299.5,402.5C 299.5,401.5 299.5,400.5 299.5,399.5C 299.5,395.167 299.5,390.833 299.5,386.5 Z"/></g>
<g><path style="opacity:1" fill="#682e24" d="M 316.5,386.5 C 321.833,386.5 327.167,386.5 332.5,386.5C 338.167,386.5 343.833,386.5 349.5,386.5C 349.5,392.167 349.5,397.833 349.5,403.5C 349.5,409.167 349.5,414.833 349.5,420.5C 383.5,420.5 417.5,420.5 451.5,420.5C 451.5,414.833 451.5,409.167 451.5,403.5C 462.5,403.5 473.5,403.5 484.5,403.5C 484.412,409.06 484.745,414.727 485.5,420.5C 479.833,420.5 474.167,420.5 468.5,420.5C 467.512,425.64 467.179,430.974 467.5,436.5C 440.661,436.169 413.995,436.502 387.5,437.5C 352.5,437.5 317.5,437.5 282.5,437.5C 282.5,431.833 282.5,426.167 282.5,420.5C 288.167,420.5 293.833,420.5 299.5,420.5C 299.5,414.833 299.5,409.167 299.5,403.5C 305.167,403.5 310.833,403.5 316.5,403.5C 316.5,397.833 316.5,392.167 316.5,386.5 Z"/></g>
<g><path style="opacity:1" fill="#9c402d" d="M 332.5,386.5 C 338.167,386.5 343.833,386.5 349.5,386.5C 349.5,392.167 349.5,397.833 349.5,403.5C 343.833,403.5 338.167,403.5 332.5,403.5C 332.5,397.833 332.5,392.167 332.5,386.5 Z"/></g>
<g><path style="opacity:1" fill="#9d402d" d="M 383.5,402.5 C 405.66,403.497 427.994,403.831 450.5,403.5C 450.5,408.833 450.5,414.167 450.5,419.5C 417.167,419.5 383.833,419.5 350.5,419.5C 350.5,414.167 350.5,408.833 350.5,403.5C 355.833,403.5 361.167,403.5 366.5,403.5C 367.78,397.856 367.78,392.523 366.5,387.5C 367,387.167 367.5,386.833 368,386.5C 372.924,386.301 377.924,386.634 383,387.5C 383.499,392.489 383.666,397.489 383.5,402.5 Z"/></g>
<g><path style="opacity:1" fill="#b65a32" d="M 451.5,386.5 C 451.5,392.167 451.5,397.833 451.5,403.5C 451.167,403.5 450.833,403.5 450.5,403.5C 427.994,403.831 405.66,403.497 383.5,402.5C 405.833,402.5 428.167,402.5 450.5,402.5C 450.179,396.974 450.512,391.64 451.5,386.5 Z"/></g>
<g><path style="opacity:0.996" fill="#5b3f3d" d="M 552.5,386.5 C 552.833,386.5 553.167,386.5 553.5,386.5C 558.833,386.5 564.167,386.5 569.5,386.5C 569.5,387.167 569.5,387.833 569.5,388.5C 564.26,387.551 558.927,387.218 553.5,387.5C 553.5,392.5 553.5,397.5 553.5,402.5C 558.5,402.5 563.5,402.5 568.5,402.5C 568.5,402.833 568.5,403.167 568.5,403.5C 563.167,403.5 557.833,403.5 552.5,403.5C 552.5,397.833 552.5,392.167 552.5,386.5 Z"/></g>
<g><path style="opacity:1" fill="#de9a72" d="M 197.5,386.5 C 197.5,392.167 197.5,397.833 197.5,403.5C 192.731,403.352 187.898,403.019 183,402.5C 182.292,403.381 181.458,404.047 180.5,404.5C 180.334,398.824 180.501,393.157 181,387.5C 186.407,386.527 191.907,386.193 197.5,386.5 Z"/></g>
<g><path style="opacity:1" fill="#f3ce9e" d="M 249.5,387.5 C 254.5,387.5 259.5,387.5 264.5,387.5C 264.5,392.5 264.5,397.5 264.5,402.5C 259.5,402.5 254.5,402.5 249.5,402.5C 249.5,397.5 249.5,392.5 249.5,387.5 Z"/></g>
<g><path style="opacity:1" fill="#30212a" d="M 569.5,388.5 C 569.46,393.193 569.127,397.859 568.5,402.5C 563.5,402.5 558.5,402.5 553.5,402.5C 553.5,397.5 553.5,392.5 553.5,387.5C 558.927,387.218 564.26,387.551 569.5,388.5 Z"/></g>
<g><path style="opacity:1" fill="#ce5858" d="M 299.5,399.5 C 299.5,400.5 299.5,401.5 299.5,402.5C 299.5,402.833 299.5,403.167 299.5,403.5C 299.167,403.5 298.833,403.5 298.5,403.5C 293.167,403.5 287.833,403.5 282.5,403.5C 276.833,403.5 271.167,403.5 265.5,403.5C 265.5,403.167 265.5,402.833 265.5,402.5C 270.833,402.5 276.167,402.5 281.5,402.5C 287.167,402.5 292.833,402.5 298.5,402.5C 298.263,401.209 298.596,400.209 299.5,399.5 Z"/></g>
<g><path style="opacity:1" fill="#f3cd9e" d="M 197.5,403.5 C 197.193,409.093 197.527,414.593 198.5,420C 220.671,420.83 242.671,420.663 264.5,419.5C 265.445,414.595 265.779,409.595 265.5,404.5C 265.5,404.167 265.5,403.833 265.5,403.5C 271.167,403.5 276.833,403.5 282.5,403.5C 282.5,408.833 282.5,414.167 282.5,419.5C 282.5,419.833 282.5,420.167 282.5,420.5C 282.167,420.5 281.833,420.5 281.5,420.5C 276.167,420.5 270.833,420.5 265.5,420.5C 265.5,425.833 265.5,431.167 265.5,436.5C 231.833,436.5 198.167,436.5 164.5,436.5C 164.5,431.167 164.5,425.833 164.5,420.5C 169.833,420.5 175.167,420.5 180.5,420.5C 180.5,417.833 180.5,415.167 180.5,412.5C 180.5,409.833 180.5,407.167 180.5,404.5C 181.458,404.047 182.292,403.381 183,402.5C 187.898,403.019 192.731,403.352 197.5,403.5 Z"/></g>
<g><path style="opacity:1" fill="#de4e4d" d="M 248.5,403.5 C 254.259,403.214 259.925,403.548 265.5,404.5C 265.779,409.595 265.445,414.595 264.5,419.5C 259.167,419.5 253.833,419.5 248.5,419.5C 248.5,414.167 248.5,408.833 248.5,403.5 Z"/></g>
<g><path style="opacity:1" fill="#df9d73" d="M 282.5,403.5 C 287.833,403.5 293.167,403.5 298.5,403.5C 298.5,408.833 298.5,414.167 298.5,419.5C 293.167,419.5 287.833,419.5 282.5,419.5C 282.5,414.167 282.5,408.833 282.5,403.5 Z"/></g>
<g><path style="opacity:1" fill="#8b3e2c" d="M 349.5,403.5 C 349.833,403.5 350.167,403.5 350.5,403.5C 350.5,408.833 350.5,414.167 350.5,419.5C 383.833,419.5 417.167,419.5 450.5,419.5C 450.5,414.167 450.5,408.833 450.5,403.5C 450.833,403.5 451.167,403.5 451.5,403.5C 451.5,409.167 451.5,414.833 451.5,420.5C 417.5,420.5 383.5,420.5 349.5,420.5C 349.5,414.833 349.5,409.167 349.5,403.5 Z"/></g>
<g><path style="opacity:1" fill="#31212b" d="M 569.5,404.5 C 574.669,405.143 579.835,405.81 585,406.5C 585.824,422.074 585.657,437.574 584.5,453C 563.833,453.667 543.167,453.667 522.5,453C 521.947,447.741 520.947,442.574 519.5,437.5C 536.342,437.83 553.008,437.497 569.5,436.5C 569.5,425.833 569.5,415.167 569.5,404.5 Z"/></g>
<g><path style="opacity:1" fill="#af7a5e" d="M 298.5,403.5 C 298.833,403.5 299.167,403.5 299.5,403.5C 299.5,409.167 299.5,414.833 299.5,420.5C 293.833,420.5 288.167,420.5 282.5,420.5C 282.5,420.167 282.5,419.833 282.5,419.5C 287.833,419.5 293.167,419.5 298.5,419.5C 298.5,414.167 298.5,408.833 298.5,403.5 Z"/></g>
<g><path style="opacity:1" fill="#32212b" d="M 148.5,420.5 C 153.5,420.5 158.5,420.5 163.5,420.5C 163.5,426.167 163.5,431.833 163.5,437.5C 158.566,437.28 153.733,436.613 149,435.5C 148.501,430.511 148.334,425.511 148.5,420.5 Z"/></g>
<g><path style="opacity:1" fill="#df9e73" d="M 281.5,420.5 C 281.5,425.833 281.5,431.167 281.5,436.5C 276.167,436.5 270.833,436.5 265.5,436.5C 265.5,431.167 265.5,425.833 265.5,420.5C 270.833,420.5 276.167,420.5 281.5,420.5 Z"/></g>
<g><path style="opacity:1" fill="#542c28" d="M 468.5,420.5 C 468.5,426.167 468.5,431.833 468.5,437.5C 441.5,437.5 414.5,437.5 387.5,437.5C 413.995,436.502 440.661,436.169 467.5,436.5C 467.179,430.974 467.512,425.64 468.5,420.5 Z"/></g>
<g><path style="opacity:1" fill="#31212b" d="M 468.5,420.5 C 474.167,420.5 479.833,420.5 485.5,420.5C 485.5,425.833 485.5,431.167 485.5,436.5C 490.305,437.487 495.305,437.821 500.5,437.5C 501.55,442.114 501.717,446.78 501,451.5C 500.25,452.126 499.416,452.626 498.5,453C 387.833,453.667 277.167,453.667 166.5,453C 165.435,447.926 164.769,442.759 164.5,437.5C 198.167,437.5 231.833,437.5 265.5,437.5C 271.167,437.5 276.833,437.5 282.5,437.5C 317.5,437.5 352.5,437.5 387.5,437.5C 414.5,437.5 441.5,437.5 468.5,437.5C 468.5,431.833 468.5,426.167 468.5,420.5 Z"/></g>
<g><path style="opacity:1" fill="#31212b" d="M 502.5,420.5 C 507.833,420.5 513.167,420.5 518.5,420.5C 518.214,426.259 518.548,431.925 519.5,437.5C 513.894,436.593 508.227,436.26 502.5,436.5C 502.5,431.167 502.5,425.833 502.5,420.5 Z"/></g>
<g><path style="opacity:1" fill="#d89b73" d="M 518.5,420.5 C 524.167,420.5 529.833,420.5 535.5,420.5C 535.5,425.833 535.5,431.167 535.5,436.5C 546.833,436.5 558.167,436.5 569.5,436.5C 553.008,437.497 536.342,437.83 519.5,437.5C 518.548,431.925 518.214,426.259 518.5,420.5 Z"/></g>
<g><path style="opacity:1" fill="#c6a482" d="M 163.5,420.5 C 163.833,420.5 164.167,420.5 164.5,420.5C 164.5,425.833 164.5,431.167 164.5,436.5C 198.167,436.5 231.833,436.5 265.5,436.5C 265.5,436.833 265.5,437.167 265.5,437.5C 231.833,437.5 198.167,437.5 164.5,437.5C 164.167,437.5 163.833,437.5 163.5,437.5C 163.5,431.833 163.5,426.167 163.5,420.5 Z"/></g>
<g><path style="opacity:1" fill="#b37d61" d="M 281.5,420.5 C 281.833,420.5 282.167,420.5 282.5,420.5C 282.5,426.167 282.5,431.833 282.5,437.5C 276.833,437.5 271.167,437.5 265.5,437.5C 265.5,437.167 265.5,436.833 265.5,436.5C 270.833,436.5 276.167,436.5 281.5,436.5C 281.5,431.167 281.5,425.833 281.5,420.5 Z"/></g>
<g><path style="opacity:1" fill="#ae7b5f" d="M 502.5,420.5 C 502.5,425.833 502.5,431.167 502.5,436.5C 502.158,437.338 501.492,437.672 500.5,437.5C 495.305,437.821 490.305,437.487 485.5,436.5C 490.833,436.5 496.167,436.5 501.5,436.5C 501.179,430.974 501.512,425.64 502.5,420.5 Z"/></g>
</svg>
